<svg width="24" height="24" viewBox="0 0 24 24" fill="none" xmlns="http://www.w3.org/2000/svg">
<g id="ic:outline-email">
<path id="Vector" d="M20.3214 6.42067L21.4649 5.68603C21.4858 5.7871 21.4969 5.8921 21.4969 6V18C21.4969 18.8369 20.8323 19.5 20.0511 19.5H4.48485C3.70367 19.5 3.03906 18.8369 3.03906 18V6C3.03906 5.8921 3.05011 5.7871 3.07103 5.68603L4.2146 6.42067L11.9977 11.4207L12.268 11.5943L12.5382 11.4207L20.3214 6.42067ZM21.4139 5.5H20.0511H4.48485H3.12201C3.32351 4.91371 3.86782 4.5 4.48485 4.5H20.0511C20.6681 4.5 21.2124 4.91371 21.4139 5.5ZM20.0511 18.5H20.5511V18V8V7.08451L19.7809 7.57933L12.268 12.4057L4.75509 7.57933L3.98485 7.08451V8V18V18.5H4.48485H20.0511Z" fill="black" stroke="white"/>
</g>
</svg>
